<?xml version="1.0" encoding="UTF-8"?><svg id="Layer_1" xmlns="http://www.w3.org/2000/svg" viewBox="0 0 2164.31 689.24"><defs><style>.cls-1{fill:#92c03a;}.cls-2{fill:#1e3142;}</style></defs><path class="cls-2" d="M64.87,346.52c0-43.82.08-87.64-.13-131.46-.02-4.42,1.74-6.67,5.22-8.44,13.93-7.07,28.08-13.76,41.72-21.35,22.38-12.45,45.58-23.29,68.18-35.31,14.87-7.91,29.87-15.58,44.76-23.47,19.08-10.11,38.53-19.51,57.3-30.19,4.57-2.6,9.55-4.45,14.2-6.93,2.31-1.23,4.19-.58,6.1.41,28.89,15,57.72,30.11,86.65,45.04,22.79,11.76,45.54,23.59,68.32,35.36,16.62,8.59,33.35,17.04,49.76,26.07,6.9,3.8,14.12,7.02,21.11,10.66,2.72,1.41,4.4,3.33,4.39,7.02-.13,88.48-.12,176.95-.03,265.43,0,3.23-.84,5.22-3.76,6.75-23.46,12.24-47.04,24.27-70.22,37.02-18.32,10.08-37.14,19.18-55.53,29.12-12.29,6.65-25.09,12.42-37.07,19.57-10.69,6.38-22.09,11.34-32.85,17.58-6.37,3.69-13.14,7.24-20.05,10.21-2.78,1.2-3.2.38-3.19-2.02.01-4.5,0-9,0-13.5,0-35.99.12-71.98-.13-107.97-.04-5.71,1.47-8.55,6.99-11.04,21.2-9.56,42.02-19.96,63.04-29.93,30.54-14.48,61.13-28.84,91.67-43.31,3.99-1.89,6.58-5.02,6.8-9.68.09-1.83.2-3.66.21-5.49.01-40.49-.05-80.98.1-121.47.01-3.75-1.26-5.63-4.48-7.26-30.06-15.12-60.05-30.39-90.06-45.6-27.2-13.79-54.42-27.54-81.57-41.42-2.65-1.36-4.69-1.52-7.42-.13-28.93,14.77-57.94,29.4-86.92,44.08-21.3,10.8-42.59,21.62-63.89,32.44-7.19,3.65-14.31,7.46-21.6,10.91-3.37,1.59-4.23,3.8-4.23,7.39.1,83.14.08,166.29.08,249.43,0,1.17,0,2.33-.02,3.5-.05,2.33-1.07,2.95-3.16,1.84-12.12-6.38-24.94-11.42-36.39-19.09-2.46-1.65-5.07-3.32-7.85-4.23-5.15-1.69-6.23-4.96-6.2-10.1.21-43.49.12-86.98.12-130.46Z"/><path class="cls-2" d="M288.17,469.25c0,42.16,0,84.31,0,126.47,0,5.63-.1,5.79-4.84,3.21-14.42-7.86-29.66-14.12-43.79-22.5-18.67-11.07-38.17-20.59-57.34-30.71-12.9-6.81-25.79-13.66-38.77-20.33-2.68-1.38-3.52-3.03-3.51-5.84.05-36.82.06-73.65,0-110.47,0-3.82.63-4.7,4.5-2.77,21.38,10.62,42.9,20.96,64.38,31.39,6.44,3.13,11.75,1.28,14.7-5.1,2.03-4.39-.54-9.8-6.2-12.48-17.51-8.29-34.76-17.12-52.43-25.11-7.3-3.3-14.41-7.14-21.64-10.66-2.33-1.13-3.33-2.67-3.33-5.44.1-35.99.09-71.98.02-107.97,0-3.65.76-4.39,4.23-2.65,12.58,6.29,25.25,12.4,37.96,18.42,19.18,9.09,38.45,17.98,57.62,27.08,15.22,7.22,30.32,14.69,45.54,21.9,2.92,1.38,2.94,3.51,2.93,6.11-.04,42.49-.03,84.98-.03,127.47Z"/><path class="cls-2" d="M298.61,320.28c-4.99-2.17-9.9-4.11-14.64-6.39-21.88-10.51-43.7-21.16-65.58-31.68-20.48-9.85-41.01-19.58-61.5-29.41-1.41-.68-3.76-.7-3.81-2.73-.06-2.36,2.62-2.32,4.05-3.01,18.17-8.79,36.45-17.36,54.68-26.04,28.04-13.36,56.08-26.73,84.08-40.18,2.07-1,3.63-.75,5.6.19,26.76,12.81,53.57,25.53,80.36,38.3,18.84,8.98,37.67,18,56.5,27.02,1.04.5,2.06,1.05,3.08,1.6.96.52,2.49.5,2.39,2.09-.09,1.39-1.36,1.71-2.41,2.22-8.67,4.14-17.32,8.33-26,12.47-22.29,10.63-44.58,21.23-66.87,31.86-15.92,7.59-31.83,15.2-47.75,22.79-.74.35-1.5.64-2.17.92Z"/><path class="cls-2" d="M910.26,347.38c0-28.82.11-57.63-.11-86.45-.04-4.87,1.45-6.24,6.22-6.19,21.66.22,43.31.12,64.97.09,13.02-.02,25.77,2.26,36.64,9.24,11.34,7.28,19.25,17.92,22.78,31.37,3.5,13.34,2.8,26.53-2.65,39.02-4.47,10.25-12.47,17.72-22.56,22.79-6.09,3.06-5.92,3.13-2.77,9.17,11.86,22.75,23.59,45.56,35.38,68.34,1.48,2.86,1.55,4.56-2.54,4.5-11.33-.14-22.66-.18-33.98.03-3.49.06-4.55-2.08-5.73-4.5-9.81-20.06-19.93-39.98-29.25-60.27-3-6.53-6.43-9.67-13.72-8.52-3.74.59-7.67.36-11.47.03-3.77-.33-4.77.91-4.74,4.69.19,20.99-.02,41.98.19,62.96.04,4.22-.81,5.86-5.43,5.64-8.64-.4-17.33-.3-25.98-.03-4.2.13-5.37-1.33-5.34-5.46.16-28.82.08-57.63.08-86.45ZM946.83,311.38c0,6.66.13,13.33-.06,19.99-.08,2.97.7,4.12,3.88,4.06,10.66-.18,21.33.12,31.99-.14,13.84-.34,23.69-10.47,23.57-23.8-.12-13.6-10.18-23.8-24.02-24.05-10.49-.19-21,.07-31.49-.12-3.19-.06-4,1.13-3.93,4.06.15,6.66.05,13.33.05,19.99Z"/><path class="cls-2" d="M309.71,391.36c0-16.33.25-32.66-.16-48.98-.12-4.76,1.96-7.15,5.57-8.7,20.94-9.03,41.29-19.31,61.87-29.08,24.85-11.8,49.63-23.74,74.46-35.57,4.64-2.21,5.19-1.79,5.19,3.58.02,33.16-.05,66.31.09,99.47.02,3.52-1.14,5.5-4.2,6.95-35.5,16.8-70.99,33.61-106.44,50.51-10.29,4.91-20.48,10.05-30.66,15.19-4.65,2.34-5.72,1.81-5.73-3.38-.01-16.66,0-33.32,0-49.98Z"/><path class="cls-2" d="M1129.87,440.44c-17.72.94-34.06-2.87-49.5-10.49-5.48-2.7-9.91-7.01-14.2-11.37-1.52-1.54-1.55-2.69-.08-4.19,6.26-6.41,12.52-12.82,18.67-19.34,2.54-2.7,4.17-.95,6.26.62,17.62,13.23,37.3,16.03,58.05,10.03,11.65-3.37,16.65-11.99,15.36-23.02-1.22-10.44-8.38-16.62-20.48-18.1-10.64-1.31-21.46-2.05-31.8-4.66-14.69-3.7-28.1-10.12-35.47-24.8-4.67-9.32-5.33-19.29-5.05-29.41.44-16.42,7.6-29.72,20.32-39.64,8.44-6.59,18.61-10.29,29.26-11.57,18.73-2.25,37.21-1.48,54.74,6.67,6.38,2.97,11.98,7.08,17.32,11.61,2.01,1.7,2.01,2.99.16,4.76-6.26,5.99-12.49,12.01-18.61,18.15-2.26,2.27-3.65.72-5.51-.5-14.53-9.55-30.27-12.75-47.15-8.01-11.52,3.24-18.48,16.39-14.23,27.46,2.92,7.6,9.65,11.49,17.53,12.88,11.46,2.02,22.96,3.76,34.44,5.63,13.65,2.22,24.9,8.87,32.5,20.22,5.13,7.67,7.07,16.88,7.56,26.3.64,12.37-1.16,24.18-8,34.63-7.4,11.3-18.35,18.1-31.01,22.28-10.24,3.38-20.76,4.6-31.08,3.87Z"/><path class="cls-2" d="M693.64,347.26c0-28.83.08-57.65-.08-86.48-.02-4.35.78-6.1,5.71-6.07,36.66.22,73.33.22,109.99,0,5.23-.03,6.61,1.61,6.31,6.57-.41,6.64-.39,13.34,0,19.98.27,4.74-1.11,6.29-6.03,6.24-24.5-.24-49,.02-73.49-.22-4.8-.05-6.33,1.24-6.18,6.11.35,10.99.32,22,0,32.99-.13,4.56,1.12,6.04,5.85,5.98,20.33-.25,40.66,0,60.99-.2,4.6-.05,6.17,1.32,5.93,5.99-.37,7.31-.28,14.67-.02,21.99.13,3.56-1.07,4.5-4.51,4.48-21-.13-42,.04-62.99-.16-4.22-.04-5.28,1.23-5.25,5.35.2,21.33,0,42.66.18,63.98.03,4.1-1.08,5.63-5.34,5.49-8.49-.28-17.01-.32-25.49.01-4.38.17-5.7-1.08-5.67-5.55.19-28.83.1-57.65.1-86.48Z"/><path class="cls-2" d="M1269.53,362.86c0-23.48-.08-46.96.09-70.43.03-3.94-1.1-5.18-5.07-5.11-12.99.22-25.98,0-38.97.15-3.39.04-4.75-.91-4.64-4.52.24-7.82.24-15.66,0-23.47-.12-3.94,1.6-4.7,5.08-4.69,40.97.08,81.94.09,122.9,0,3.66,0,5.07,1.14,4.97,4.88-.21,7.65-.24,15.32.01,22.97.12,3.76-1.17,4.9-4.87,4.84-12.32-.19-24.65-.07-36.97-.07q-6.86,0-6.87,6.67c0,46.29-.07,92.58.11,138.87.02,4.91-1.03,6.81-6.3,6.51-8.13-.45-16.32-.32-24.47-.03-4.03.14-5.12-1.22-5.09-5.14.16-23.81.08-47.62.08-71.43Z"/><path class="cls-2" d="M1690.95,347.25c0-28.82.09-57.64-.1-86.46-.03-4.49,1.03-6.11,5.8-6.06,21.49.21,42.99-.06,64.48.05,12.31.06,24.14,2.76,34.46,9.6,8.35,5.53,13.73,13.86,16.49,23.39,3.85,13.31,3.33,26.65-2.22,39.52-6.29,14.58-18.06,22.52-33.04,25.95-3.97.91-4.15,2.24-2.58,5.22,9.53,18.12,19.06,36.25,28.57,54.39,3.97,7.57,7.78,15.23,11.87,22.73,1.56,2.87,1.11,3.97-2.16,3.77-.17-.01-.34-.03-.5,0-8.43,1.37-13.66-1.11-17.72-9.69-10.48-22.15-22.35-43.65-33.6-65.44-1.28-2.48-3.2-4.58-3.88-7.44-.51-2.14-2.53-2.35-4.45-2.35-14.5.01-28.99.11-43.49-.05-4.22-.04-3.39,2.69-3.39,5.05-.02,24.66-.14,49.31.1,73.97.05,4.85-1.36,6.71-6.12,5.97-1.14-.18-2.34-.14-3.49,0-3.95.46-5.13-1.18-5.1-5.14.17-22.99.09-45.98.09-68.97,0-6,0-12,0-17.99ZM1705.48,304.65c0,11.16,0,22.32,0,33.49,0,1.99-.29,4.07,2.9,3.97,20.12-.63,40.29,1.14,60.39-1.2,18.3-2.13,30.63-14.97,31.13-34.57.57-22.2-12.3-36.7-34.47-38.04-18.81-1.14-37.64-.15-56.45-.55-3.1-.07-3.55,1.36-3.54,3.92.07,11,.03,21.99.04,32.99Z"/><path class="cls-2" d="M877.52,347.37c0,28.63-.09,57.26.09,85.88.03,4.44-.98,6.27-5.81,6.05-8.47-.38-16.98-.29-25.46-.02-3.74.12-4.82-.99-4.79-4.74.18-19.47.08-38.95.08-58.42,0-38.62.07-77.23-.1-115.84-.02-4.38,1.09-5.74,5.54-5.55,8.47.37,16.98.28,25.46.03,4.04-.12,5.08,1.4,5.06,5.23-.13,29.13-.07,58.26-.07,87.38Z"/><path class="cls-2" d="M1656.76,439.34c-7.75,0-7.8.02-10.24-7.53-3.58-11.11-8.75-21.65-11.77-32.97-.89-3.33-2.76-4.54-6.45-4.51-25.15.2-50.29.14-75.44.06-3.34-.01-5.26.56-6.49,4.36-3.91,12.09-8.61,23.92-12.69,35.96-1.44,4.24-4.11,4.77-7.97,4.7-10.41-.21-10.18-.22-6.22-9.63,4.1-9.73,7.47-19.77,10.83-29.81,2.9-8.68,6.69-17.1,9.81-25.75,4.18-11.6,8.49-23.15,12.76-34.72,8.07-21.86,16.26-43.68,24.13-65.61,1.94-5.41,4.05-10.73,6.1-16.09,2.05-5.35,6.56-2.2,9.91-2.92,2.64-.56,4.29.78,5.24,3.41,8.03,22.15,16.11,44.29,24.26,66.4,8.44,22.91,16.98,45.79,25.45,68.69,4.93,13.34,9.83,26.69,14.73,40.05,2.16,5.89,2.13,5.9-5.96,5.9ZM1590.19,275.69c-3.39,9.54-6.39,17.95-9.38,26.36-8.89,24.98-17.73,49.97-26.72,74.91-1.29,3.58-.57,4.61,3.26,4.58,22.16-.13,44.33-.13,66.49,0,3.86.02,4.45-.81,3.1-4.54-9.74-26.98-19.16-54.07-28.88-81.05-2.33-6.46-4-13.23-7.87-20.26Z"/><path class="cls-2" d="M1390.73,346.79c0-28.65.11-57.29-.11-85.94-.04-4.95,1.57-6.17,6.3-6.12,19.82.24,39.64.03,59.47.12,16.99.08,32.63,3.88,44.74,16.94,6.86,7.4,10.91,16.24,12.16,26.09,2.02,15.88.09,31.1-9.9,44.4-5.42,7.22-13.19,11.08-21.03,14.99-7.7,3.84-15.83,3.98-24.06,3.98-15.99,0-31.99.16-47.97-.11-4.5-.08-5.58,1.35-5.54,5.68.21,22.15-.04,44.3.2,66.45.05,4.77-1.21,6.86-6.1,6.08-.97-.16-2.01-.11-2.99,0-3.88.43-5.33-1.16-5.24-5.13.22-9.32.07-18.65.07-27.98,0-19.82,0-39.64,0-59.46ZM1404.88,308.21c0,11.65.16,23.31-.09,34.96-.08,3.89.95,5.25,4.98,5.2,16.48-.19,32.97-.06,49.45-.09,7.76-.02,15.22-1.57,22.01-5.37,11.55-6.46,16.87-16.69,18.07-29.69,2.27-24.56-10.17-43.16-36.32-44.91-17.95-1.2-35.94-.19-53.91-.55-3.33-.07-4.28,1.33-4.25,4.49.13,11.99.05,23.97.05,35.96Z"/><path class="cls-2" d="M2040.5,347.31c9.78-21.39,20.09-41.03,29.59-61.09,4.53-9.56,8.5-19.49,14.17-28.55,1.94-3.1,4.46-2.86,7.28-2.85q9.53.03,5.4,8.32c-13.44,26.86-26.89,53.72-40.34,80.58-2.5,4.99-4.98,9.98-7.52,14.95-1.53,3-2.27,6.05-2.24,9.52.14,21.99-.03,43.99.17,65.98.04,4.22-1.27,5.37-5.38,5.27-10.94-.25-9.06.29-9.1-9.14-.08-17.66-.46-35.34.15-52.98.34-9.83-1.85-18.44-6.45-27.01-8.16-15.19-15.43-30.84-23.48-46.09-7.82-14.81-15-29.94-22.54-44.89-1.77-3.51-1.64-4.11,2.47-4.66,8.11-1.08,12.36,1.93,15.93,9.38,12.57,26.26,25.95,52.13,39.03,78.14.72,1.43,1.56,2.79,2.88,5.12Z"/><path class="cls-2" d="M1902.92,353.37c0,26.66-.13,53.32.12,79.98.05,4.95-1.44,6.15-6.15,5.97-8.84-.34-8.39,1.22-8.39-8.26.02-52.49-.06-104.97.12-157.46.02-4.91-1.46-6.12-6.19-6.02-14.33.3-28.66-.02-42.99.19-3.93.06-5.66-1.04-5.1-5.07.16-1.14.12-2.34,0-3.49-.31-3.12.74-4.43,4.16-4.42,38.66.1,77.32.08,115.98.02,2.69,0,3.83.68,3.93,3.62.33,9.27.45,9.27-8.78,9.27-14,0-28,.13-41.99-.09-3.77-.06-4.83,1.08-4.81,4.8.14,26.99.07,53.98.08,80.98Z"/><path class="cls-1" d="M1069.58,554.32c3.62-3.36,3.85-7.69,3.98-11.03.28-6.8,3.87-12.51,4.76-19.01.47-3.43,1.74-6.74,2.54-10.12.59-2.49,1.92-3.4,4.57-3.42,6.87-.04,7.11-.12,5.38,6.68-4.81,18.93-9.9,37.78-14.7,56.71-.73,2.86-2.52,2.61-4.49,2.62-2.62.01-5.38.56-6.39-3.1-3.12-11.22-6.4-22.39-9.62-33.58-.32-1.11-.67-2.22-1.08-3.31-.3-.79-.76-1.54-1.75-1.48-1.12.07-1.03,1.05-1.25,1.82-3.49,12.01-7.21,23.95-10.38,36.04-1.07,4.09-3.65,3.46-6.42,3.66-3.1.22-4.3-1.18-5.03-4.13-3.7-15.03-7.57-30.03-11.51-45-1.07-4.05-3.87-7.6-3.3-12.16.22-1.73-1.74-4.5,1.67-4.51,3.07-.01,7.39-2.58,8.84,2.65,1.62,5.87,2.97,11.81,4.38,17.74,1.54,6.45,2.98,12.92,4.55,19.36.3,1.23.7,2.55,2.3,3.53,2.66-9.4,5.28-18.59,7.87-27.78,1.04-3.67,2.15-7.32,3.03-11.03.73-3.06,1.85-4.78,5.61-4.82,3.83-.04,4.88,1.95,5.68,4.82,3.51,12.71,7.02,25.42,10.74,38.85Z"/><path class="cls-1" d="M1130.22,532.71c0,13.44-.14,26.2.08,38.96.07,3.87-.96,5.22-4.99,5.23-3.92.01-5.08-1.1-5.03-5.06.2-18.32.04-36.64.15-54.96.01-2.05-1.4-5.27,1.88-5.88,3.53-.66,7.44-.96,9.89,2.83,8.29,12.8,16.56,25.62,24.84,38.42.34.53.74,1.02,1.17,1.62,2.08-1.49,1.25-3.48,1.26-5.12.09-10.83.24-21.66-.05-32.47-.12-4.6,1.74-5.49,5.89-5.6,4.35-.12,4.86,1.8,4.83,5.37-.12,18.49-.02,36.97-.1,55.46,0,1.81,1.16,4.51-1.44,5.22-2.97.81-6.64,1.67-8.83-1.34-5.33-7.35-10.36-14.92-15.37-22.5-4.02-6.09-7.81-12.34-11.76-18.47-.38-.59-1.24-.88-2.44-1.7Z"/><path class="cls-1" d="M1591.76,543.65c0-9.31.11-18.63-.05-27.93-.07-3.87,1.37-5.39,5.28-5.24,5.98.22,11.97.06,17.96.06,12.36,0,21.17,5.97,23.13,18,1.83,11.23,2.32,22.85-.93,34.1-2.21,7.63-10.05,13.74-18.08,14.03-7.81.28-15.63,0-23.45.14-3.14.06-3.95-1.32-3.91-4.22.12-9.64.05-19.29.05-28.93ZM1602.54,543.94c0,6.65,0,13.3,0,19.96,0,1.71-.11,3.54,2.35,3.52,4.32-.04,8.7.28,12.93-.38,5.51-.86,9.38-5.24,9.99-10.42,1.01-8.6,1.15-17.22-.06-25.8-.68-4.79-3.42-8.06-8.17-9.71-4.4-1.53-8.89-.75-13.35-1.01-2.85-.17-3.77,1.18-3.72,3.89.11,6.65.04,13.3.03,19.96Z"/><path class="cls-1" d="M1472.54,543.83c0-9.65-.01-19.3,0-28.95,0-1.99-.25-4.43,2.75-4.29,10.09.49,20.27-1.48,30.26,1.3,7.59,2.11,11.81,7.43,12.99,14.83,1.23,7.76-.88,14.83-8.2,18.78-4.17,2.25-3.66,4.36-1.85,7.66,3.65,6.63,7.37,13.22,10.5,20.14,1.32,2.92.43,3.21-2.21,3.53-5.53.65-9.2-.62-11.52-6.44-2.55-6.39-5.84-12.56-9.55-18.45-2.88-4.56-7.19-2.74-10.83-2.46-3.44.27-1.79,3.73-1.87,5.76-.22,5.82-.3,11.66,0,17.46.24,4.61-2.66,4.01-5.52,4.09-2.87.07-5.15.13-5.04-4,.25-9.64.08-19.3.08-28.95ZM1482.94,530c0,2.16.09,4.32-.02,6.47-.16,2.85,1.21,3.85,3.9,3.77,3.98-.12,7.98.09,11.95-.18,5.38-.37,9.12-4.17,9.41-9.14.3-5.11-2.79-9.33-8.02-10.4-2.41-.49-4.95-.41-7.43-.39-10.81.07-9.71-1.5-9.78,9.87Z"/><path class="cls-1" d="M989.42,543.29c-.11,7.88.88,16-3.04,23.26-3.58,6.62-9.47,9.9-17.05,10.77-10.13,1.17-17.91-2.18-24.17-10.21-3.41-4.36-2.93-9.46-3.31-14.13-.62-7.73-.47-15.56.45-23.38,1.16-9.85,6.87-15.67,15.65-18.33,11.53-3.49,25.32.51,29.81,12.88,2.22,6.12,1.8,12.69,1.66,19.14ZM979.03,543.92c-.18-4.08-.22-8.07-.57-12.04-.6-6.93-5.69-12-12.1-12.28-6.81-.3-12.69,4.26-13.47,11.35-.92,8.42-.86,16.96-.04,25.39.7,7.25,6.22,11.54,13.34,11.34,6.91-.19,11.55-4.59,12.25-11.9.38-3.96.41-7.96.59-11.86Z"/><path class="cls-1" d="M1358.78,544.77c-.33,5.5.69,12.01-1.66,18.33-3.32,8.91-10.4,14.09-19.84,14.16-6.46.04-12.82.23-18.3-4.41-6.01-5.08-7.55-11.69-7.53-18.98.03-9.45-.06-18.92.45-28.35.21-3.85,3-7.1,5.9-9.49,9.74-8.03,26.69-8.26,35.34,1.69,4.34,5,5.54,10.82,5.63,17.1.04,3,0,5.99,0,9.94ZM1347.87,543.82c-.07,0-.15,0-.22,0,0-4.32.26-8.67-.06-12.96-.48-6.32-5.09-10.7-11.29-11.26-6.02-.54-11.38,2.73-13.05,8.49-2.79,9.61-2.4,19.49-.62,29.13,1.48,8,6.58,11.1,14.45,10.4,6.28-.56,10.31-5.23,10.76-12.82.22-3.65.04-7.32.04-10.98Z"/><path class="cls-1" d="M1713.32,577.33c-6.76,1.39-7.12-4.86-8.33-9.21-1-3.61-2.86-4.41-5.93-4.42-3.83-.01-7.65,0-11.48,0-9.53,0-9.72.13-12,9.08-.39,1.52.25,3.8-2.01,4.01-3.26.3-6.82,1.69-9.77-.09-2.05-1.24-.28-3.9.47-5.29,3.83-7.04,5.75-14.72,8.38-22.18,3.56-10.08,7.56-20,11.35-29.99.41-1.07.83-2.17.97-3.29.34-2.68.58-5.23,4.24-5.38,3.74-.15,6.67-.08,8.29,4.56,6.58,18.87,13.56,37.6,20.51,56.34,2.03,5.47,1.78,6.04-4.7,5.89ZM1692.23,528.57c-.39.02-.77.03-1.16.05-2.71,7.74-5.4,15.48-8.14,23.21-.76,2.14.34,2.7,2.15,2.7,4.32.01,8.65,0,12.97,0,1.94,0,2.72-.66,2.01-2.73-2.66-7.73-5.23-15.48-7.83-23.23Z"/><path class="cls-1" d="M1848.19,576.76c-5.41,1.97-6.43-2.82-7.24-6.76-1.09-5.29-3.9-6.84-8.98-6.4-4.63.4-9.32.16-13.99.06-3.14-.07-4.98,1.05-5.53,4.37-.35,2.1-1.27,4.12-2.09,6.11-.97,2.33-8.97,3.93-10.61,2.06-1.29-1.47-.29-3.21.24-4.68,4.98-13.74,10.21-27.39,15-41.19,1.92-5.52,3.56-11.07,6.17-16.36,1.4-2.84,3.01-3.36,5.72-3.53,3.16-.19,4.57,1.5,5.49,4.01,3.82,10.43,7.63,20.86,11.39,31.32,3.08,8.56,6.12,17.14,9.13,25.73,1.84,5.23,1.8,5.24-4.71,5.25ZM1826.06,529.41c-2.63,7.29-5.3,14.7-7.96,22.11-.8,2.22.12,3.06,2.33,3.04,4.16-.05,8.33-.06,12.49,0,2.55.03,3.13-.77,2.21-3.3-2.37-6.56-4.44-13.22-6.67-19.83-.31-.91-.69-1.92-2.41-2.01Z"/><path class="cls-1" d="M1438.03,535.85c0,6.32-.03,12.65,0,18.97.06,8.83-3.38,16.12-11.27,19.97-14.82,7.24-35.02,1.22-35.99-19.17-.64-13.45-.04-26.95-.17-40.43-.04-4.36,2.43-4.62,5.81-4.74,3.58-.13,4.56,1.27,4.53,4.66-.12,13.14-.19,26.29.07,39.43.16,8.35,6.25,13.62,14.14,13.48,6.27-.11,12.73-6.73,12.55-13.42-.35-12.64-.11-25.29-.09-37.94,0-5.25,4.22-7.86,8.92-5.65,1.81.85,1.47,2.44,1.48,3.86.04,6.99.02,13.98.02,20.97Z"/><path class="cls-1" d="M1764.38,548.46c0,7.32-.16,14.64.06,21.95.13,4.15-.05,6.76-5.57,6.76-5.4,0-5.29-2.65-5.26-6.49.12-15.14-.09-30.27.14-45.41.07-4.23-1.31-5.7-5.41-5.23-2.3.27-4.66-.02-6.98.07-3.24.13-5.78.11-5.78-4.52,0-4.46,1.91-5.2,5.74-5.14,12.14.17,24.29.16,36.43,0,3.56-.05,5.05.93,5.04,4.77,0,3.68-1.13,4.91-4.85,4.98-4.38.09-10.01-2.21-12.83,1.14-2.48,2.95-.61,8.33-.72,12.64-.12,4.82-.03,9.65-.03,14.47Z"/><path class="cls-1" d="M1257.32,560.82c2.27-12.26-5.74-22.37-11.65-33.15-2.52-4.6-4.98-9.21-6.85-14.11-.51-1.34-.51-2.48,1.39-3,5.31-1.47,9.11.3,11.52,5.46,2.79,5.97,5.63,11.91,8.48,17.85.62,1.3.82,3.26,2.67,3.23,2-.03,1.83-2.26,2.18-3.46,1.99-6.7,6.38-12.23,8.87-18.68,1.52-3.95,7.45-6.02,11.27-4.25,2.4,1.11,1.14,2.7.41,4.13-4.35,8.54-8.54,17.17-13.14,25.58-3.25,5.94-5.16,11.96-4.59,18.83.38,4.63-.13,9.33.13,13.97.23,4.08-2.39,3.68-4.87,3.52-2.53-.17-6.1,1.27-5.86-3.63.17-3.65.03-7.32.03-12.28Z"/></svg>